<svg width="36" height="36" viewBox="0 0 36 36" fill="none" xmlns="http://www.w3.org/2000/svg">
<path d="M9 5H27C30.0421 5 32.5 7.4494 32.5 10.455V25.545C32.5 28.5506 30.0421 31 27 31H9C5.95787 31 3.5 28.5506 3.5 25.545V10.455C3.5 7.4494 5.95787 5 9 5Z" stroke="white"/>
<path d="M28.5 13.125H21C20.385 13.125 19.875 12.615 19.875 12C19.875 11.385 20.385 10.875 21 10.875H28.5C29.115 10.875 29.625 11.385 29.625 12C29.625 12.615 29.115 13.125 28.5 13.125Z" fill="#39FF14"/>
<path d="M28.5 19.125H22.5C21.885 19.125 21.375 18.615 21.375 18C21.375 17.385 21.885 16.875 22.5 16.875H28.5C29.115 16.875 29.625 17.385 29.625 18C29.625 18.615 29.115 19.125 28.5 19.125Z" fill="#39FF14"/>
<path d="M28.5 25.125H25.5C24.885 25.125 24.375 24.615 24.375 24C24.375 23.385 24.885 22.875 25.5 22.875H28.5C29.115 22.875 29.625 23.385 29.625 24C29.625 24.615 29.115 25.125 28.5 25.125Z" fill="#39FF14"/>
<path d="M12.75 17.6849C14.6637 17.6849 16.215 16.1335 16.215 14.2199C16.215 12.3062 14.6637 10.7549 12.75 10.7549C10.8363 10.7549 9.285 12.3062 9.285 14.2199C9.285 16.1335 10.8363 17.6849 12.75 17.6849Z" fill="white"/>
<path d="M13.95 19.6649C13.155 19.5899 12.33 19.5899 11.535 19.6649C9.015 19.9049 6.99 21.8999 6.75 24.4199C6.735 24.6299 6.795 24.8399 6.945 24.9899C7.095 25.1399 7.29 25.2449 7.5 25.2449H18C18.21 25.2449 18.42 25.1549 18.555 25.0049C18.69 24.8549 18.765 24.6449 18.75 24.4349C18.495 21.8999 16.485 19.9049 13.95 19.6649Z" fill="white"/>
</svg>
